# AST/ASF file generated using VICON BodyLanguage
# -----------------------------------------------
:version 1.10
:name VICON
:units
  mass 1.0
  length 0.45
  angle deg
:documentation
   .ast/.asf automatically generated from VICON data using
   VICON BodyBuilder and BodyLanguage model FoxedUp or BRILLIANT.MOD
:root
   order TX TY TZ RX RY RZ
   axis XYZ
   position 0 0 0  
   orientation 0 0 0 
:bonedata
  begin
     id 1 
     name lhipjoint
     direction 0.662698 -0.695252 0.27831 
     length 2.53073 
     axis 0 0 0  XYZ
  end
  begin
     id 2 
     name lfemur
     direction 0.34202 -0.939693 0  
     length 7.16147  
     axis 0 0 20  XYZ
    dof rx ry rz
    limits (-160.0 20.0)
           (-70.0 70.0)
           (-60.0 70.0)
  end
  begin
     id 3 
     name ltibia
     direction 0.34202 -0.939693 0   
     length 7.63967   
     axis 0 0 20   XYZ
    dof rx
    limits (-10.0 170.0)
  end
  begin
     id 4 
     name lfoot
     direction 0.0938457 -0.257721 0.961651   
     length 1.89793   
     axis -90 7.62852e-016 20   XYZ
    dof rx rz
    limits (-45.0 90.0)
           (-70.0 20.0)
  end
  begin
     id 5 
     name ltoes
     direction -0.00116841 -0.0030592 0.999995   
     length 0.955649   
     axis -90 7.62852e-016 20   XYZ
    dof rx
    limits (-90.0 20.0)
  end
  begin
     id 6 
     name rhipjoint
     direction -0.649445 -0.705948 0.282592   
     length 2.49238  
     axis 0 0 0  XYZ 
  end
  begin
     id 7 
     name rfemur
     direction -0.34202 -0.939693 0   
     length 6.90728   
     axis 0 0 -20   XYZ
    dof rx ry rz
    limits (-160.0 20.0)
           (-70.0 70.0)
           (-70.0 60.0)
  end
  begin
     id 8 
     name rtibia
     direction -0.34202 -0.939693 0   
     length 7.72868   
     axis 0 0 -20   XYZ
    dof rx
    limits (-10.0 170.0)
 end
 begin
     id 9 
     name rfoot
     direction -0.0920068 -0.252865 0.963117   
     length 1.97476  
     axis -90 -7.62852e-016 -20   XYZ
    dof rx rz
    limits (-45.0 90.0)
           (-20.0 70.0)
  end
  begin
     id 10 
     name rtoes
     direction 0.000391322 0.00230649 0.999997   
     length 0.992641   
     axis -90 -7.62852e-016 -20   XYZ
    dof rx
    limits (-90.0 20.0)
  end
  begin
     id 11 
     name lowerback
     direction -0.00875327 0.998321 -0.0572635   
     length 2.20024   
     axis 0 0 0   XYZ
    dof rx ry rz
    limits (-20.0 45.0)
           (-30.0 30.0)
           (-30.0 30.0)
  end
  begin
     id 12 
     name upperback
     direction 0.00753931 0.999972 -0.000360425   
     length 2.20538   
     axis 0 0 0   XYZ
    dof rx ry rz
    limits (-20.0 45.0)
           (-30.0 30.0)
           (-30.0 30.0)
  end
  begin
     id 13 
     name thorax
     direction 0.0117767 0.999601 0.0256663   
     length 2.21508   
     axis 0 0 0   XYZ
    dof rx ry rz
    limits (-20.0 45.0)
           (-30.0 30.0)
           (-30.0 30.0)
  end
  begin
     id 14 
     name lowerneck
     direction 0.060228 0.994909 0.0807986   
     length 1.7607   
     axis 0 0 0   XYZ
    dof rx ry rz
    limits (-20.0 45.0)
           (-30.0 30.0)
           (-30.0 30.0)
  end
  begin
     id 15 
     name upperneck
     direction -0.0563647 0.959594 -0.275685   
     length 1.75612   
     axis 0 0 0   XYZ
    dof rx ry rz
    limits (-20.0 45.0)
           (-30.0 30.0)
           (-30.0 30.0)
  end
  begin
     id 16
     name head
     direction -0.0161544 0.99458 -0.102714  
     length 1.79288  
     axis 0 0 0   XYZ
    dof rx ry rz
    limits (-20.0 45.0)
           (-30.0 30.0)
           (-30.0 30.0)
  end
  begin
     id 17 
     name lclavicle
     direction 0.93913 0.332189 -0.087669  
     length 3.52087  
     axis 0 0 0   XYZ
    dof ry rz
    limits (-20.0 10.0)
           (0.0 20.0)
  end
  begin
     id 18 
     name lhumerus
     direction 1 -4.48974e-011 -2.70836e-027   
     length 5.35289   
     axis -180 -30 -90   XYZ
    dof rx ry rz
    limits (-60.0 90.0)
           (-90.0 90.0)
           (-90.0 90.0)
  end
  begin
     id 19
     name lradius
     direction 1 -4.48961e-011 -9.76021e-027   
     length 3.27727   
     axis -180 -30 -90   XYZ
    dof rx
    limits (-10.0 170.0)
  end
  begin
     id 20
     name lwrist
     direction 1 -4.49103e-011 -2.23668e-026   
     length 1.63864   
     axis 1.44924e-014 90 90   XYZ
    dof ry
    limits (-180.0 0.0)
 end
  begin
     id 21 
     name lhand
     direction 1 3.0697e-005 0.000161777   
     length 0.54443   
     axis 2.85318e-014 90 90   XYZ
    dof rx rz
    limits (-90.0 90.0)
           (-45.0 45.0)
  end
  begin
     id 22 
     name lfingers
     direction 1 -4.49027e-011 -8.9447e-026   
     length 0.438912   
     axis 5.70628e-014 90 90   XYZ
    dof rx
    limits (0.0 90.0)
  end
  begin
     id 23
     name lthumb
     direction 0.707058 2.6516e-005 0.707156   
     length 0.630274   
     axis -90 45 -3.53137e-014   XYZ
    dof rx rz
    limits (-45.0 45.0)
           (-45.0 45.0)
  end
  begin
     id 24 
     name rclavicle
     direction -0.95274 0.284984 -0.105215   
     length 3.43401  
     axis 0 0 0   XYZ 
    dof ry rz
    limits (-10.0 20.0)
           (-20.0 0.0)
  end
  begin
     id 25 
     name rhumerus
     direction -0.999999 -0.000575019 -0.00106829  
     length 5.52077   
     axis -180 30 90   XYZ
    dof rx ry rz
    limits (-90.0 60.0)
           (-90.0 90.0)
           (-90.0 90.0)
  end
  begin
     id 26 
     name rradius
     direction -1 -4.4879e-011 -6.35415e-027   
     length 3.32364   
     axis -180 30 90   XYZ
    dof rx
    limits (-10.0 170.0)
  end
  begin
     id 27 
     name rwrist
     direction -1 -4.49048e-011 -9.98542e-027   
     length 1.66182   
     axis 6.32482e-015 -90 -90   XYZ
    dof ry
    limits (-180.0 0.0)
  end
  begin
     id 28
     name rhand
     direction -1 -4.48978e-011 -1.99771e-026   
     length 0.732235   
     axis 1.27479e-014 -90 -90   XYZ
    dof rx rz
    limits (-90.0 90.0)
           (-45.0 45.0)
  end
  begin
     id 29
     name rfingers
     direction -1 -4.49144e-011 -3.99245e-026   
     length 0.590347   
     axis 2.5496e-014 -90 -90   XYZ
    dof rx
    limits (0.0 90.0)
  end
  begin
     id 30
     name rthumb
     direction -0.707107 -6.35121e-011 0.707107   
     length 0.847624   
     axis -90 -45 -2.82974e-014   XYZ
    dof rx rz
    limits (-45.0 45.0)
           (-45.0 45.0)
  end
:hierarchy
  begin
    root lhipjoint rhipjoint lowerback
    lhipjoint lfemur
    lfemur ltibia
    ltibia lfoot
    lfoot ltoes
    rhipjoint rfemur
    rfemur rtibia
    rtibia rfoot
    rfoot rtoes
    lowerback upperback
    upperback thorax
    thorax lowerneck lclavicle rclavicle
    lowerneck upperneck
    upperneck head
    lclavicle lhumerus
    lhumerus lradius
    lradius lwrist
    lwrist lhand lthumb
    lhand lfingers
    rclavicle rhumerus
    rhumerus rradius
    rradius rwrist
    rwrist rhand rthumb
    rhand rfingers
  end

#!OML:ASF G:\Work\Work\Patient Classification 1\Elijah\terrain1\Elijah.ASF
:FULLY-SPECIFIED
:DEGREES
1771
root 17.345 20.9987 21.8943 222.919 75.145 -138.921
lowerback 1.95426 2.71802 6.06294
upperback 1.40172 3.79359 2.83629
thorax 0.546253 1.96492 -0.518181
lowerneck -4.53955 15.6323 17.1372
upperneck 27.4494 29.614 -19.4156
head 16.5032 13.7546 -4.98109
rclavicle 1.26849e-014 6.03311e-014
rhumerus -38.599 1.21016 -81.7183
rradius 46.288
rwrist -11.8914
rhand -15.2033 20.7048
rfingers 7.12502
rthumb 10.9686 -8.98862
lclavicle 1.26849e-014 6.03311e-014
lhumerus -58.1284 2.03034 78.1462
lradius 27.5321
lwrist 1.76493
lhand -17.6911 27.6528
lfingers 7.12502
lthumb 8.56849 57.4589
rfemur 1.94726 -7.48673 33.3726
rtibia 32.8342
rfoot -27.645 -7.09439
rtoes -16.6084
lfemur -42.8944 12.2237 -22.4755
ltibia 42.2205
lfoot 11.37 4.57978
ltoes -17.4317
1772
root 17.4808 20.9624 21.8464 222.858 75.1611 -138.827
lowerback 1.88267 2.79611 6.39696
upperback 1.31153 3.88782 2.40779
thorax 0.551609 2.00917 -1.13965
lowerneck -4.42729 15.6491 17.7893
upperneck 27.4361 29.6732 -19.5705
head 16.6593 13.8335 -5.12102
rclavicle -3.71976e-014 -2.08724e-014
rhumerus -39.1796 1.32742 -82.4041
rradius 46.8034
rwrist -12.2456
rhand -14.7757 20.6484
rfingers 7.12502
rthumb 11.3811 -9.02272
lclavicle -3.71976e-014 -2.08724e-014
lhumerus -57.2596 0.488675 77.9901
lradius 26.7794
lwrist 3.60911
lhand -14.5528 28.172
lfingers 7.12502
lthumb 11.5961 57.8312
rfemur 2.48215 -7.65776 33.077
rtibia 33.1379
rfoot -27.4813 -6.80764
rtoes -17.7531
lfemur -41.9907 12.4199 -22.2472
ltibia 40.9414
lfoot 11.5248 5.86836
ltoes -11.1185
1773
root 17.6033 20.9405 21.8303 222.297 75.0456 -139.853
lowerback 1.35355 2.69505 5.82154
upperback 1.07489 3.70568 2.32702
thorax 0.560248 1.90694 -0.884752
lowerneck -4.16008 15.7744 17.8581
upperneck 27.1361 29.9541 -19.8364
head 16.6085 13.9685 -5.17268
rclavicle -3.40419e-015 -1.76918e-014
rhumerus -39.5955 2.13172 -82.8547
rradius 47.3371
rwrist -12.9418
rhand -14.3936 20.558
rfingers 7.12502
rthumb 11.7496 -9.09244
lclavicle -3.40419e-015 -1.76918e-014
lhumerus -58.2227 2.23343 76.5434
lradius 27.2199
lwrist 2.32177
lhand -14.532 27.9373
lfingers 7.12502
lthumb 11.6161 57.5953
rfemur 2.38114 -7.80535 32.9169
rtibia 33.4659
rfoot -27.5136 -6.09121
rtoes -16.838
lfemur -41.5882 11.5698 -21.8603
ltibia 39.7134
lfoot 11.6065 7.48009
ltoes -11.2457
1774
root 17.7411 20.9158 21.7946 222.261 74.9609 -139.811
lowerback 1.17849 2.90037 5.89363
upperback 1.03503 3.95862 1.98798
thorax 0.661496 2.03262 -1.26158
lowerneck -4.25204 15.7894 18.0949
upperneck 26.9441 29.7657 -19.7018
head 16.4868 13.9035 -5.18702
rclavicle 4.2689e-014 -2.50469e-014
rhumerus -39.8081 1.33956 -83.366
rradius 47.4971
rwrist -12.9429
rhand -14.4482 20.4079
rfingers 7.12502
rthumb 11.697 -9.24555
lclavicle 4.2689e-014 -2.50469e-014
lhumerus -58.4899 2.11274 75.8418
lradius 27.4396
lwrist 2.43957
lhand -15.1183 27.823
lfingers 7.12502
lthumb 11.0507 57.5121
rfemur 2.86904 -7.96754 32.7367
rtibia 33.8203
rfoot -27.5621 -5.25238
rtoes -15.9563
lfemur -40.5481 10.4525 -21.0757
ltibia 38.6497
lfoot 11.3414 9.44203
ltoes -11.6329
1775
root 17.8735 20.8756 21.7651 222.666 74.7123 -139.349
lowerback 1.06829 3.20152 5.99854
upperback 0.94539 4.35019 1.74
thorax 0.684079 2.22603 -1.56636
lowerneck -4.46976 15.7294 18.3968
upperneck 26.9576 29.4735 -19.4713
head 16.4577 13.7965 -5.19503
rclavicle -3.93594e-014 -2.22639e-014
rhumerus -40.3328 0.752652 -83.5877
rradius 47.9073
rwrist -13.1151
rhand -14.2238 20.3569
rfingers 7.12502
rthumb 11.9133 -9.28413
lclavicle -3.93594e-014 -2.22639e-014
lhumerus -58.4676 1.77486 75.0955
lradius 27.6106
lwrist 2.73786
lhand -13.4986 28.0069
lfingers 7.12502
lthumb 12.6125 57.6062
rfemur 3.21164 -8.15978 32.8801
rtibia 34.1933
rfoot -27.2695 -5.4386
rtoes -17.65
lfemur -39.8209 10.4078 -20.5376
ltibia 37.6893
lfoot 11.6545 10.3223
ltoes -13.0714
1776
root 18.0075 20.8449 21.7355 222.133 74.566 -140.124
lowerback 0.672003 3.31235 5.47662
upperback 0.758382 4.46841 1.67276
thorax 0.686961 2.27654 -1.32899
lowerneck -4.36284 15.6543 18.3329
upperneck 26.7999 29.3411 -19.4838
head 16.3074 13.7521 -5.2372
rclavicle -4.17448e-015 -4.37326e-015
rhumerus -40.7847 0.677918 -83.7601
rradius 48.1335
rwrist -13.1608
rhand -14.0841 20.2588
rfingers 7.12502
rthumb 12.048 -9.37438
lclavicle -4.17448e-015 -4.37326e-015
lhumerus -58.6165 2.01116 74.5266
lradius 27.6791
lwrist 2.91072
lhand -11.684 28.0952
lfingers 7.12502
lthumb 14.3615 57.5784
rfemur 3.27547 -8.40927 32.7142
rtibia 34.6141
rfoot -26.9433 -5.62973
rtoes -19.1211
lfemur -39.4298 10.5845 -20.6204
ltibia 36.9015
lfoot 12.5135 10.2904
ltoes -18.957
1777
root 18.164 20.799 21.6671 221.677 74.4837 -140.355
lowerback 0.394997 3.24304 5.53601
upperback 0.7784 4.35266 1.55819
thorax 0.86894 2.22273 -1.46129
lowerneck -4.02883 15.6861 18.0326
upperneck 26.344 29.3557 -19.5754
head 15.974 13.7642 -5.2521
rclavicle -1.30204e-014 -1.82882e-014
rhumerus -41.1169 1.22191 -84.2591
rradius 48.2917
rwrist -13.4085
rhand -14.2259 19.9936
rfingers 7.12502
rthumb 11.9113 -9.6476
lclavicle -1.30204e-014 -1.82882e-014
lhumerus -58.8442 2.45531 74.0992
lradius 27.5281
lwrist 3.28416
lhand -12.1863 27.8454
lfingers 7.12502
lthumb 13.8775 57.3624
rfemur 3.94412 -8.75794 32.1977
rtibia 35.1073
rfoot -26.9303 -4.66184
rtoes -18.5489
lfemur -38.1492 9.56646 -20.0606
ltibia 36.1649
lfoot 11.3047 12.7294
ltoes -12.2472
1778
root 18.2966 20.7473 21.6364 222.259 73.9219 -140.094
lowerback -0.102227 2.81521 5.28513
upperback 0.586827 3.76057 1.93277
thorax 0.868967 1.92368 -0.928217
lowerneck -3.41306 15.9477 17.4926
upperneck 25.6213 29.9295 -20.0697
head 15.6625 14.0025 -5.25812
rclavicle 9.24349e-015 -3.97569e-016
rhumerus -41.2446 2.80719 -84.7004
rradius 48.3335
rwrist -13.6636
rhand -14.0095 19.9508
rfingers 7.12502
rthumb 12.12 -9.6782
lclavicle 9.24349e-015 -3.97569e-016
lhumerus -59.0551 3.53696 73.8777
lradius 27.2081
lwrist 4.30965
lhand -13.1037 27.8135
lfingers 7.12502
lthumb 12.9932 57.3889
rfemur 3.81745 -9.01992 32.5592
rtibia 35.6515
rfoot -26.885 -3.90213
rtoes -17.7606
lfemur -37.8855 8.82977 -19.2243
ltibia 35.5128
lfoot 10.9366 14.0629
ltoes -9.54005
1779
root 18.4436 20.7029 21.5922 221.789 73.7251 -140.663
lowerback -0.438076 2.94142 5.00342
upperback 0.476345 3.90671 1.74586
thorax 0.945906 1.99279 -0.94577
lowerneck -3.51101 15.9615 18.0064
upperneck 25.5892 29.9651 -20.2337
head 15.8206 14.0391 -5.36495
rclavicle 3.7123e-014 -7.95139e-016
rhumerus -41.5074 2.23555 -84.9168
rradius 48.2765
rwrist -13.4435
rhand -13.3674 20.2295
rfingers 7.12502
rthumb 12.739 -9.3619
lclavicle 3.7123e-014 -7.95139e-016
lhumerus -58.0537 2.28436 74.0896
lradius 26.5685
lwrist 6.29716
lhand -12.6489 28.5584
lfingers 7.12502
lthumb 13.4316 58.1054
rfemur 4.0598 -9.39713 32.2833
rtibia 36.2068
rfoot -26.8687 -3.30433
rtoes -18.2563
lfemur -37.0942 7.54123 -18.667
ltibia 34.8392
lfoot 9.85013 16.2733
ltoes -5.62538
1780
root 18.5928 20.6559 21.5708 221.426 73.5175 -141.373
lowerback -1.0258 3.0676 4.32371
upperback 0.324759 4.04694 1.67014
thorax 1.08512 2.0573 -0.615735
lowerneck -3.88723 15.8833 18.3085
upperneck 25.8168 29.829 -20.1987
head 16.0277 13.9706 -5.39697
rclavicle -2.47487e-014 1.51076e-014
rhumerus -41.7259 1.73144 -84.9503
rradius 48.159
rwrist -13.1132
rhand -12.7755 20.5636
rfingers 7.12502
rthumb 13.3096 -8.99138
lclavicle -2.47487e-014 1.51076e-014
lhumerus -59.3672 4.45488 72.1449
lradius 27.568
lwrist 3.98975
lhand -11.8236 28.3797
lfingers 7.12502
lthumb 14.227 57.8725
rfemur 4.07484 -9.5008 32.248
rtibia 36.6861
rfoot -26.8159 -3.05999
rtoes -18.7917
lfemur -36.7873 8.10445 -18.7712
ltibia 34.3771
lfoot 9.97102 16.4349
ltoes -5.37044
1781
root 18.7346 20.6022 21.5012 220.448 72.8685 -142.499
lowerback -1.37316 2.87035 4.47602
upperback 0.167052 3.76656 1.61205
thorax 1.11925 1.91666 -0.752993
lowerneck -3.7103 15.9568 17.7953
upperneck 25.5603 29.8507 -19.9904
head 15.7113 13.9713 -5.25292
rclavicle 9.39258e-014 -2.46493e-014
rhumerus -42.0739 1.98125 -85.178
rradius 48.1125
rwrist -13.0955
rhand -12.5416 20.5741
rfingers 7.12502
rthumb 13.535 -8.96596
lclavicle 9.39258e-014 -2.46493e-014
lhumerus -59.1491 4.90194 71.4708
lradius 27.2986
lwrist 4.31352
lhand -11.1725 27.9984
lfingers 7.12502
lthumb 14.8544 57.4459
rfemur 4.20981 -10.264 32.0479
rtibia 37.1867
rfoot -26.6785 -2.38871
rtoes -18.922
lfemur -36.173 6.24731 -18.2068
ltibia 34.023
lfoot 8.69243 18.4208
ltoes -2.8898
1782
root 18.9011 20.5462 21.4723 221.339 72.6334 -141.454
lowerback -1.49747 2.6532 4.43518
upperback -0.0397527 3.48107 1.78375
thorax 0.949663 1.76988 -0.564173
lowerneck -2.79989 16.1803 17.2868
upperneck 24.9717 30.365 -20.2113
head 15.3247 14.2387 -5.20935
rclavicle -3.15571e-014 8.74653e-015
rhumerus -42.6204 2.94706 -85.7699
rradius 48.0517
rwrist -13.1582
rhand -12.346 20.2729
rfingers 7.12502
rthumb 13.7235 -9.25455
lclavicle -3.15571e-014 8.74653e-015
lhumerus -59.7003 5.90654 70.6431
lradius 27.3166
lwrist 4.90426
lhand -10.8701 28.0783
lfingers 7.12502
lthumb 15.1456 57.5041
rfemur 4.76024 -10.2163 32.3122
rtibia 37.7075
rfoot -26.6147 -2.41213
rtoes -20.2352
lfemur -35.2895 5.79864 -17.4127
ltibia 33.8987
lfoot 7.5067 18.9125
ltoes -4.32797
1783
root 19.0493 20.4774 21.4142 220.631 71.9965 -142.52
lowerback -2.07314 2.66649 4.59239
upperback -0.360892 3.47222 1.5568
thorax 0.964961 1.76165 -0.863971
lowerneck -2.20389 16.055 17.4215
upperneck 24.5385 30.1442 -20.3091
head 14.9864 14.2213 -5.37995
rclavicle -1.75924e-014 3.18055e-015
rhumerus -43.3051 2.54252 -86.0963
rradius 48.0607
rwrist -13.1636
rhand -12.1373 20.1529
rfingers 7.12502
rthumb 13.9247 -9.36084
lclavicle -1.75924e-014 3.18055e-015
lhumerus -59.8229 5.54205 70.3714
lradius 27.4211
lwrist 5.6576
lhand -10.6196 28.6114
lfingers 7.12502
lthumb 15.3869 58.0188
rfemur 4.65611 -10.8674 32.2735
rtibia 38.3698
rfoot -26.4433 -2.47115
rtoes -22.4808
lfemur -35.2373 6.47757 -17.8218
ltibia 33.9457
lfoot 6.98678 14.4344
ltoes -9.79417
1784
root 19.1917 20.4074 21.3776 219.964 71.2665 -143.78
lowerback -2.66501 2.67423 4.28991
upperback -0.764243 3.47085 1.36952
thorax 0.87532 1.75375 -0.870556
lowerneck -1.75919 15.9618 17.9621
upperneck 24.1184 30.0208 -20.6216
head 14.8462 14.2454 -5.63838
rclavicle 8.34896e-014 2.94201e-014
rhumerus -43.9274 2.04379 -86.3533
rradius 47.9821
rwrist -13.1655
rhand -12.1827 20.3455
rfingers 7.12502
rthumb 13.8809 -9.17121
lclavicle 8.34896e-014 2.94201e-014
lhumerus -59.8957 5.15922 70.0406
lradius 27.5483
lwrist 6.05622
lhand -10.4414 28.579
lfingers 7.12502
lthumb 15.5585 57.9732
rfemur 4.21631 -11.4686 32.4387
rtibia 39.1502
rfoot -26.1906 -2.34858
rtoes -23.636
lfemur -35.624 7.89537 -18.5816
ltibia 34.2446
lfoot 6.54714 9.62702
ltoes -16.59
1785
root 19.3444 20.3416 21.3202 219.768 70.63 -143.951
lowerback -2.73768 2.79784 4.49488
upperback -1.02738 3.63632 1.11307
thorax 0.682301 1.82937 -1.24411
lowerneck -1.40514 15.8169 18.951
upperneck 23.9608 29.9961 -21.1192
head 15.0058 14.327 -5.99639
rclavicle -2.67365e-014 3.10104e-014
rhumerus -44.557 1.24156 -86.7141
rradius 47.7808
rwrist -13.0141
rhand -12.2037 20.6198
rfingers 7.12502
rthumb 13.8607 -8.89833
lclavicle -2.67365e-014 3.10104e-014
lhumerus -59.8593 4.93934 69.2809
lradius 27.5286
lwrist 5.7891
lhand -10.2337 28.1582
lfingers 7.12502
lthumb 15.7586 57.5367
rfemur 4.32245 -11.8886 32.517
rtibia 40.1734
rfoot -25.8732 -1.57353
rtoes -23.6144
lfemur -35.1583 7.87239 -18.6148
ltibia 34.6524
lfoot 4.90345 7.90258
ltoes -18.1536
